# Blender v2.76 (sub 0) OBJ File: 'torch.blend'
# www.blender.org
v 0.125000 0.100000 0.075000
v -0.475000 0.100000 0.075000
v 0.125000 0.092388 0.113268
v -0.475000 0.092388 0.113268
v 0.125000 0.070711 0.145711
v -0.475000 0.070711 0.145711
v 0.125000 0.038268 0.167388
v -0.475000 0.038268 0.167388
v 0.125000 -0.000000 0.175000
v -0.475000 -0.000000 0.175000
v 0.125000 -0.038268 0.167388
v -0.475000 -0.038268 0.167388
v 0.125000 -0.070711 0.145711
v -0.475000 -0.070711 0.145711
v 0.125000 -0.092388 0.113268
v -0.475000 -0.092388 0.113268
v 0.125000 -0.100000 0.075000
v -0.475000 -0.100000 0.075000
v 0.125000 -0.092388 0.036732
v -0.475000 -0.092388 0.036732
v 0.125000 -0.070711 0.004289
v -0.475000 -0.070711 0.004289
v 0.125000 -0.038268 -0.017388
v -0.475000 -0.038268 -0.017388
v 0.125000 -0.000000 -0.025000
v -0.475000 -0.000000 -0.025000
v 0.125000 0.038268 -0.017388
v -0.475000 0.038268 -0.017388
v 0.125000 0.070711 0.004289
v -0.475000 0.070711 0.004289
v 0.125000 0.092388 0.036732
v -0.475000 0.092388 0.036732
v 0.125000 0.150000 0.075000
v 0.125000 0.138582 0.132403
v 0.125000 0.106066 0.181066
v 0.125000 0.057402 0.213582
v 0.125000 -0.000000 0.225000
v 0.125000 -0.057403 0.213582
v 0.125000 -0.106066 0.181066
v 0.125000 -0.138582 0.132403
v 0.125000 -0.150000 0.075000
v 0.125000 -0.138582 0.017598
v 0.125000 -0.106066 -0.031066
v 0.125000 -0.057403 -0.063582
v 0.125000 -0.000000 -0.075000
v 0.125000 0.057403 -0.063582
v 0.125000 0.106066 -0.031066
v 0.125000 0.138582 0.017598
v 0.225000 0.150000 0.075000
v 0.225000 0.138582 0.132403
v 0.225000 0.106066 0.181066
v 0.225000 0.057402 0.213582
v 0.225000 -0.000000 0.225000
v 0.225000 -0.057403 0.213582
v 0.225000 -0.106066 0.181066
v 0.225000 -0.138582 0.132403
v 0.225000 -0.150000 0.075000
v 0.225000 -0.138582 0.017598
v 0.225000 -0.106066 -0.031066
v 0.225000 -0.057403 -0.063582
v 0.225000 -0.000000 -0.075000
v 0.225000 0.057403 -0.063582
v 0.225000 0.106066 -0.031066
v 0.225000 0.138582 0.017598
vt 0.388586 0.975067
vt 0.388586 0.549049
vt 0.418546 0.549050
vt 0.446226 0.549050
vt 0.446226 0.975067
vt 0.360906 0.975066
vt 0.339721 0.975067
vt 0.339721 0.549049
vt 0.312042 0.975067
vt 0.312042 0.549050
vt 0.282082 0.975067
vt 0.254402 0.975067
vt 0.254402 0.549050
vt 0.147898 0.549050
vt 0.147898 0.975067
vt 0.126713 0.975067
vt 0.099033 0.975067
vt 0.099033 0.549049
vt 0.069073 0.975067
vt 0.069073 0.549049
vt 0.041393 0.975067
vt 0.041393 0.549050
vt 0.020208 0.975067
vt 0.226722 0.975067
vt 0.196762 0.975067
vt 0.196762 0.549049
vt 0.169083 0.975067
vt 0.419909 0.219322
vt 0.635244 0.219322
vt 0.635244 0.434657
vt 0.360906 0.549050
vt 0.286133 0.320978
vt 0.277734 0.278752
vt 0.328705 0.257639
vt 0.218018 0.219036
vt 0.239131 0.168065
vt 0.292827 0.203943
vt 0.253815 0.399001
vt 0.277734 0.363204
vt 0.328705 0.384317
vt 0.175792 0.431319
vt 0.175792 0.486490
vt 0.112453 0.473891
vt 0.065450 0.320978
vt 0.010280 0.320978
vt 0.022879 0.257639
vt 0.073850 0.363204
vt 0.097769 0.399001
vt 0.058757 0.438013
vt 0.218018 0.422920
vt 0.239131 0.473891
vt 0.175792 0.210637
vt 0.175792 0.155466
vt 0.097769 0.242955
vt 0.058757 0.203943
vt 0.112453 0.168065
vt 0.341304 0.320978
vt 0.253815 0.242955
vt 0.292827 0.438013
vt 0.022879 0.384317
vt 0.133566 0.422920
vt 0.133566 0.219036
vt 0.073850 0.278752
vt 0.410704 0.114241
vt 0.375873 0.114241
vt 0.375873 0.054728
vt 0.166886 0.114241
vt 0.166885 0.054728
vt 0.201717 0.054728
vt 0.201717 0.114241
vt 0.236548 0.054728
vt 0.410704 0.054728
vt 0.445535 0.054728
vt 0.271379 0.114241
vt 0.236548 0.114241
vt 0.027561 0.114241
vt 0.027560 0.054728
vt 0.062392 0.054728
vt 0.062392 0.114241
vt 0.097223 0.054728
vt 0.480367 0.114240
vt 0.445535 0.114241
vt 0.480367 0.054727
vt 0.515198 0.054727
vt 0.271379 0.054728
vt 0.306210 0.054728
vt 0.097223 0.114241
vt 0.132054 0.054728
vt 0.550029 0.114240
vt 0.515198 0.114240
vt 0.306210 0.114241
vt 0.341042 0.054728
vt 0.341042 0.114241
vt 0.132054 0.114241
vt 0.550029 0.054727
vt 0.584860 0.054727
vt 0.633991 0.491313
vt 0.498696 0.626608
vt 0.633991 0.953239
vt 0.418546 0.975067
vt 0.282082 0.549049
vt 0.126713 0.549049
vt 0.020208 0.549050
vt 0.226722 0.549049
vt 0.169083 0.549049
vt 0.585846 0.467664
vt 0.527577 0.479254
vt 0.469307 0.467664
vt 0.419909 0.434657
vt 0.386902 0.385259
vt 0.375312 0.326990
vt 0.386902 0.268720
vt 0.469307 0.186316
vt 0.527577 0.174725
vt 0.585846 0.186316
vt 0.668251 0.268720
vt 0.679841 0.326990
vt 0.668251 0.385259
vt 0.584860 0.114240
vt 0.729658 0.972268
vt 0.825326 0.953239
vt 0.906429 0.899047
vt 0.960621 0.817944
vt 0.979651 0.722276
vt 0.960621 0.626608
vt 0.906429 0.545505
vt 0.825326 0.491313
vt 0.729658 0.472284
vt 0.552887 0.545505
vt 0.479666 0.722276
vt 0.498696 0.817944
vt 0.552887 0.899047
vn -0.000000 0.980800 0.195100
vn -0.000000 0.831500 0.555600
vn 0.000000 0.555600 0.831500
vn -0.000000 0.195100 0.980800
vn -0.000000 -0.195100 0.980800
vn -0.000000 -0.555600 0.831500
vn -0.000000 -0.831500 0.555600
vn -0.000000 -0.980800 0.195100
vn -0.000000 -0.980800 -0.195100
vn 0.000000 -0.831500 -0.555600
vn 0.000000 -0.555600 -0.831500
vn 0.000000 -0.195100 -0.980800
vn 0.000000 0.195100 -0.980800
vn 0.000000 0.555600 -0.831500
vn -1.000000 0.000000 0.000000
vn 0.000000 0.980800 -0.195100
vn 0.000000 0.831500 -0.555600
vn 1.000000 0.000000 -0.000000
s off
f 1/1/1 2/2/1 4/3/1
f 4/3/2 6/4/2 5/5/2
f 6/6/3 8/7/3 7/8/3
f 8/7/4 10/9/4 9/10/4
f 9/10/5 10/9/5 12/11/5
f 12/11/6 14/12/6 13/13/6
f 13/14/7 14/15/7 16/16/7
f 16/16/8 18/17/8 17/18/8
f 18/17/9 20/19/9 19/20/9
f 20/19/10 22/21/10 21/22/10
f 21/22/11 22/21/11 24/23/11
f 23/13/12 24/12/12 26/24/12
f 26/24/13 28/25/13 27/26/13
f 27/26/14 28/25/14 30/27/14
f 22/28/15 14/29/15 6/30/15
f 32/31/16 2/2/16 1/1/16
f 30/27/17 32/15/17 31/14/17
f 9/32/15 11/33/15 38/34/15
f 15/35/15 40/36/15 39/37/15
f 5/38/15 7/39/15 36/40/15
f 1/41/15 33/42/15 48/43/15
f 25/44/15 45/45/15 44/46/15
f 27/47/15 29/48/15 47/49/15
f 1/41/15 3/50/15 34/51/15
f 15/35/15 17/52/15 41/53/15
f 21/54/15 43/55/15 42/56/15
f 9/32/15 37/57/15 36/40/15
f 13/58/15 39/37/15 38/34/15
f 3/50/15 5/38/15 35/59/15
f 27/47/15 46/60/15 45/45/15
f 29/48/15 31/61/15 48/43/15
f 17/52/15 19/62/15 42/56/15
f 23/63/15 44/46/15 43/55/15
f 38/64/6 39/65/6 55/66/6
f 45/67/12 61/68/12 60/69/12
f 44/70/11 60/69/11 59/71/11
f 38/64/5 54/72/5 53/73/5
f 42/74/10 43/75/10 59/71/10
f 33/76/16 49/77/16 64/78/16
f 48/79/17 64/78/17 63/80/17
f 36/81/4 37/82/4 53/73/4
f 36/81/3 52/83/3 51/84/3
f 42/74/9 58/85/9 57/86/9
f 47/87/14 63/80/14 62/88/14
f 34/89/2 35/90/2 51/84/2
f 41/91/8 57/86/8 56/92/8
f 40/93/7 56/92/7 55/66/7
f 46/94/13 62/88/13 61/68/13
f 34/89/1 50/95/1 49/96/1
f 58/97/18 60/98/18 64/99/18
f 3/100/1 1/1/1 4/3/1
f 3/100/2 4/3/2 5/5/2
f 5/31/3 6/6/3 7/8/3
f 7/8/4 8/7/4 9/10/4
f 11/101/5 9/10/5 12/11/5
f 11/101/6 12/11/6 13/13/6
f 15/102/7 13/14/7 16/16/7
f 15/102/8 16/16/8 17/18/8
f 17/18/9 18/17/9 19/20/9
f 19/20/10 20/19/10 21/22/10
f 23/103/11 21/22/11 24/23/11
f 25/104/12 23/13/12 26/24/12
f 25/104/13 26/24/13 27/26/13
f 29/105/14 27/26/14 30/27/14
f 6/30/15 4/106/15 2/107/15
f 2/107/15 32/108/15 30/109/15
f 30/109/15 28/110/15 26/111/15
f 26/111/15 24/112/15 22/28/15
f 22/28/15 20/113/15 14/29/15
f 18/114/15 16/115/15 14/29/15
f 14/29/15 12/116/15 10/117/15
f 10/117/15 8/118/15 14/29/15
f 6/30/15 2/107/15 22/28/15
f 30/109/15 26/111/15 22/28/15
f 20/113/15 18/114/15 14/29/15
f 14/29/15 8/118/15 6/30/15
f 2/107/15 30/109/15 22/28/15
f 31/6/16 32/31/16 1/1/16
f 29/105/17 30/27/17 31/14/17
f 37/57/15 9/32/15 38/34/15
f 13/58/15 15/35/15 39/37/15
f 35/59/15 5/38/15 36/40/15
f 31/61/15 1/41/15 48/43/15
f 23/63/15 25/44/15 44/46/15
f 46/60/15 27/47/15 47/49/15
f 33/42/15 1/41/15 34/51/15
f 40/36/15 15/35/15 41/53/15
f 19/62/15 21/54/15 42/56/15
f 7/39/15 9/32/15 36/40/15
f 11/33/15 13/58/15 38/34/15
f 34/51/15 3/50/15 35/59/15
f 25/44/15 27/47/15 45/45/15
f 47/49/15 29/48/15 48/43/15
f 41/53/15 17/52/15 42/56/15
f 21/54/15 23/63/15 43/55/15
f 54/72/6 38/64/6 55/66/6
f 44/70/12 45/67/12 60/69/12
f 43/75/11 44/70/11 59/71/11
f 37/82/5 38/64/5 53/73/5
f 58/85/10 42/74/10 59/71/10
f 48/79/16 33/76/16 64/78/16
f 47/87/17 48/79/17 63/80/17
f 52/83/4 36/81/4 53/73/4
f 35/90/3 36/81/3 51/84/3
f 41/91/9 42/74/9 57/86/9
f 46/94/14 47/87/14 62/88/14
f 50/95/2 34/89/2 51/84/2
f 40/93/8 41/91/8 56/92/8
f 39/65/7 40/93/7 55/66/7
f 45/67/13 46/94/13 61/68/13
f 33/119/1 34/89/1 49/96/1
f 64/99/18 49/120/18 50/121/18
f 50/121/18 51/122/18 52/123/18
f 52/123/18 53/124/18 54/125/18
f 54/125/18 55/126/18 56/127/18
f 56/127/18 57/128/18 58/97/18
f 58/97/18 59/129/18 60/98/18
f 60/98/18 61/130/18 62/131/18
f 62/131/18 63/132/18 60/98/18
f 64/99/18 50/121/18 52/123/18
f 52/123/18 54/125/18 56/127/18
f 56/127/18 58/97/18 64/99/18
f 60/98/18 63/132/18 64/99/18
f 64/99/18 52/123/18 56/127/18
