# Blender v2.78 (sub 0) OBJ File: 'flashbang_grenade.blend'
# www.blender.org
v 0.086603 -0.200000 -0.050000
v 0.086603 -0.200000 0.050000
v 0.000000 -0.200000 0.100000
v -0.086603 -0.200000 0.050000
v -0.086603 -0.200000 -0.050000
v -0.000000 -0.200000 -0.100000
v 0.086603 0.200000 -0.050000
v 0.086603 0.200000 0.050000
v 0.000000 0.200000 0.100000
v -0.086603 0.200000 0.050000
v -0.086603 0.200000 -0.050000
v -0.000000 0.200000 -0.100000
v 0.086603 0.300000 -0.050000
v 0.086603 0.300000 0.050000
v 0.000000 0.300000 0.100000
v -0.086603 0.300000 0.050000
v -0.086603 0.300000 -0.050000
v -0.000000 0.300000 -0.100000
v 0.086603 -0.300000 -0.050000
v 0.086603 -0.300000 0.050000
v 0.000000 -0.300000 0.100000
v -0.000000 -0.300000 -0.100000
v -0.000000 -0.200000 -0.070000
v 0.000000 0.200000 -0.070000
v 0.023941 -0.200000 -0.065778
v 0.023941 0.200000 -0.065778
v 0.044995 -0.200000 -0.053623
v 0.044995 0.200000 -0.053623
v 0.060622 -0.200000 -0.035000
v 0.060622 0.200000 -0.035000
v 0.068937 -0.200000 -0.012155
v 0.068937 0.200000 -0.012155
v 0.068937 -0.200000 0.012155
v 0.068937 0.200000 0.012155
v 0.060622 -0.200000 0.035000
v 0.060622 0.200000 0.035000
v 0.044995 -0.200000 0.053623
v 0.044995 0.200000 0.053623
v 0.023941 -0.200000 0.065778
v 0.023941 0.200000 0.065778
v 0.000000 -0.200000 0.070000
v 0.000000 0.200000 0.070000
v -0.023941 -0.200000 0.065778
v -0.023941 0.200000 0.065778
v -0.044995 -0.200000 0.053623
v -0.044995 0.200000 0.053623
v -0.060622 -0.200000 0.035000
v -0.060622 0.200000 0.035000
v -0.068937 -0.200000 0.012155
v -0.068937 0.200000 0.012155
v -0.068937 -0.200000 -0.012155
v -0.068937 0.200000 -0.012155
v -0.060622 -0.200000 -0.035000
v -0.060622 0.200000 -0.035000
v -0.044995 -0.200000 -0.053623
v -0.044995 0.200000 -0.053623
v -0.023941 -0.200000 -0.065778
v -0.023941 0.200000 -0.065778
v -0.086603 -0.300000 0.050000
v -0.086603 -0.300000 -0.050000
v 0.037500 0.300000 -0.037500
v -0.037500 0.300000 -0.037500
v 0.037500 0.300000 0.037500
v -0.037500 0.300000 0.037500
v 0.037500 0.320000 0.037500
v 0.037500 0.320000 -0.037500
v -0.037500 0.320000 0.037500
v -0.037500 0.320000 -0.037500
v 0.027428 0.400000 0.027428
v 0.027428 0.400000 -0.027428
v -0.027428 0.400000 0.027428
v -0.027428 0.400000 -0.027428
v 0.008959 0.320000 -0.127500
v -0.008959 0.320000 -0.127500
v 0.008959 0.400000 -0.087500
v -0.008959 0.400000 -0.087500
v 0.008959 0.320000 -0.134579
v -0.008959 0.320000 -0.134579
v 0.008959 0.400000 -0.094579
v -0.008959 0.400000 -0.094579
v 0.008959 0.120000 -0.127500
v -0.008959 0.120000 -0.127500
v 0.008959 0.120000 -0.134579
v -0.008959 0.120000 -0.134579
vt 0.8840 0.4633
vt 0.9997 0.3475
vt 0.9997 0.4633
vt 0.8840 0.1160
vt 0.9997 0.0003
vt 0.9997 0.1160
vt 0.8840 0.2318
vt 0.9997 0.2318
vt 0.8840 0.6948
vt 0.9997 0.5791
vt 0.9997 0.6948
vt 0.8840 0.5791
vt 0.7676 0.3475
vt 0.8834 0.4633
vt 0.7676 0.4633
vt 0.7676 0.2318
vt 0.8834 0.3475
vt 0.8834 0.5791
vt 0.7676 0.5791
vt 0.4633 0.4224
vt 0.0003 0.3943
vt 0.4633 0.3943
vt 0.4633 0.3661
vt 0.0003 0.3661
vt 0.4633 0.3380
vt 0.0003 0.3380
vt 0.4633 0.3098
vt 0.0003 0.2817
vt 0.4633 0.2817
vt 0.0003 0.2536
vt 0.4633 0.2536
vt 0.4633 0.2254
vt 0.0003 0.2254
vt 0.4633 0.1973
vt 0.0003 0.1973
vt 0.4633 0.1691
vt 0.0003 0.1691
vt 0.4633 0.1410
vt 0.0003 0.1410
vt 0.4633 0.1129
vt 0.0003 0.1129
vt 0.4633 0.0847
vt 0.0003 0.0847
vt 0.4633 0.0566
vt 0.0003 0.0566
vt 0.4633 0.0284
vt 0.0003 0.0284
vt 0.4633 0.0003
vt 0.0003 0.5068
vt 0.4633 0.4787
vt 0.4633 0.5068
vt 0.8913 0.8372
vt 0.7605 0.8848
vt 0.8217 0.7788
vt 0.0003 0.4505
vt 0.4633 0.4505
vt 0.4835 0.4765
vt 0.6217 0.3967
vt 0.6217 0.5009
vt 0.1294 0.5793
vt 0.2184 0.6307
vt 0.1540 0.6145
vt 0.0404 0.6307
vt 0.1048 0.6145
vt 0.0831 0.6270
vt 0.0404 0.7335
vt 0.0585 0.6696
vt 0.0585 0.6946
vt 0.1294 0.7849
vt 0.0831 0.7372
vt 0.1048 0.7497
vt 0.2184 0.7335
vt 0.1540 0.7497
vt 0.1756 0.7372
vt 0.2002 0.6696
vt 0.3720 0.6238
vt 0.3474 0.5887
vt 0.3936 0.6363
vt 0.4182 0.6789
vt 0.4363 0.6400
vt 0.4363 0.7428
vt 0.3936 0.7465
vt 0.3474 0.7942
vt 0.3228 0.7590
vt 0.2584 0.7428
vt 0.2765 0.7039
vt 0.2584 0.6400
vt 0.3011 0.6363
vt 0.3228 0.6238
vt 0.7676 0.0003
vt 0.8834 0.1160
vt 0.7676 0.1160
vt 0.8834 0.6948
vt 0.7676 0.6948
vt 0.0003 0.8982
vt 0.2318 0.8982
vt 0.1739 0.9984
vt 0.5983 0.0175
vt 0.5337 0.0691
vt 0.5252 0.0496
vt 0.6081 0.7560
vt 0.6650 0.6547
vt 0.6650 0.7705
vt 0.5213 0.6692
vt 0.4645 0.7705
vt 0.4645 0.6547
vt 0.5647 0.5969
vt 0.6081 0.6692
vt 0.5647 0.8284
vt 0.5213 0.7560
vt 0.7319 0.1602
vt 0.6316 0.1199
vt 0.7090 0.0853
vt 0.4790 0.1871
vt 0.5388 0.2461
vt 0.5201 0.2571
vt 0.7519 0.1541
vt 0.7290 0.0792
vt 0.7061 0.5963
vt 0.6824 0.5074
vt 0.7061 0.5074
vt 0.6024 0.1929
vt 0.5781 0.1434
vt 0.6511 0.1726
vt 0.6432 0.2433
vt 0.6069 0.0370
vt 0.4977 0.1761
vt 0.3892 0.9613
vt 0.2941 0.9371
vt 0.2929 0.9292
vt 0.6824 0.5963
vt 0.5757 0.5412
vt 0.5981 0.3266
vt 0.6605 0.2353
vt 0.7462 0.5040
vt 0.7259 0.6027
vt 0.7259 0.5040
vt 0.6890 0.4929
vt 0.7093 0.2660
vt 0.7093 0.4929
vt 0.3885 0.9423
vt 0.2934 0.9182
vt 0.3897 0.9503
vt 0.7002 0.6358
vt 0.7082 0.6561
vt 0.7002 0.6561
vt 0.7307 0.6530
vt 0.7226 0.6327
vt 0.7307 0.6327
vt 0.6131 0.9102
vt 0.6148 0.9371
vt 0.3903 0.9692
vt 0.7462 0.2832
vt 0.8840 0.3475
vt 0.8840 0.0003
vt 0.8834 0.2318
vt 0.0003 0.4224
vt 0.0003 0.3098
vt 0.0003 0.0003
vt 0.0003 0.4787
vt 0.8459 0.7830
vt 0.8671 0.7953
vt 0.8829 0.8141
vt 0.8913 0.8617
vt 0.8459 0.9158
vt 0.8829 0.8848
vt 0.8671 0.9036
vt 0.8217 0.9201
vt 0.7975 0.9158
vt 0.7763 0.9036
vt 0.7521 0.8617
vt 0.7521 0.8372
vt 0.7605 0.8141
vt 0.7763 0.7953
vt 0.7975 0.7830
vt 0.5737 0.5286
vt 0.5456 0.5286
vt 0.5192 0.5190
vt 0.4976 0.5009
vt 0.4786 0.4488
vt 0.4835 0.4211
vt 0.4976 0.3967
vt 0.5192 0.3786
vt 0.5456 0.3690
vt 0.5737 0.3690
vt 0.6002 0.3786
vt 0.6358 0.4211
vt 0.6407 0.4488
vt 0.6358 0.4765
vt 0.6002 0.5190
vt 0.1917 0.6461
vt 0.1756 0.6270
vt 0.1294 0.6102
vt 0.0671 0.6461
vt 0.0671 0.7181
vt 0.1294 0.7540
vt 0.1917 0.7181
vt 0.2002 0.6946
vt 0.4097 0.6554
vt 0.3474 0.6195
vt 0.4097 0.7274
vt 0.4182 0.7039
vt 0.3474 0.7633
vt 0.3720 0.7590
vt 0.2851 0.7274
vt 0.3011 0.7465
vt 0.2851 0.6554
vt 0.2765 0.6789
vt 0.8834 0.0003
vt 0.0582 0.9984
vt 0.0582 0.7979
vt 0.1739 0.7979
vt 0.5757 0.5625
vt 0.7519 0.2574
vt 0.7462 0.6027
vt 0.6890 0.2660
vt 0.2923 0.9102
vt 0.7082 0.6358
vt 0.7226 0.6530
vt 0.6142 0.9182
vt 0.6137 0.9292
vt 0.7259 0.2832
vn 1.0000 0.0000 0.0000
vn -1.0000 0.0000 0.0000
vn 0.5000 0.0000 0.8660
vn -0.5000 0.0000 -0.8660
vn -0.5000 0.0000 0.8660
vn 0.5000 0.0000 -0.8660
vn 0.1736 0.0000 -0.9848
vn 0.7660 0.0000 -0.6428
vn 0.9397 0.0000 -0.3420
vn 0.9397 0.0000 0.3420
vn 0.7660 0.0000 0.6428
vn 0.1736 -0.0000 0.9848
vn -0.1736 -0.0000 0.9848
vn -0.7660 -0.0000 0.6428
vn -0.9397 0.0000 0.3420
vn -0.9397 0.0000 -0.3420
vn -0.7660 0.0000 -0.6428
vn 0.0000 1.0000 0.0000
vn -0.1736 0.0000 -0.9848
vn 0.0000 -1.0000 -0.0000
vn 0.0000 0.0000 1.0000
vn 0.9922 0.1249 0.0000
vn 0.0000 0.0000 -1.0000
vn 0.0000 0.1249 0.9922
vn -0.9922 0.1249 0.0000
vn -0.9425 0.1494 -0.2989
vn 0.9442 0.1554 -0.2903
vn 0.0000 0.4472 -0.8944
vn -0.9442 0.1554 -0.2903
vn 0.9425 0.1494 -0.2989
s off
f 13/1/1 8/2/1 7/3/1
f 16/4/2 11/5/2 10/6/2
f 8/2/3 15/7/3 9/8/3
f 17/9/4 12/10/4 11/11/4
f 15/7/5 10/6/5 9/8/5
f 18/12/6 7/3/6 12/10/6
f 2/13/1 19/14/1 1/15/1
f 3/16/3 20/17/3 2/13/3
f 1/15/6 22/18/6 6/19/6
f 23/20/7 26/21/7 25/22/7
f 26/21/6 27/23/6 25/22/6
f 28/24/8 29/25/8 27/23/8
f 30/26/9 31/27/9 29/25/9
f 31/27/1 34/28/1 33/29/1
f 33/29/10 36/30/10 35/31/10
f 36/30/11 37/32/11 35/31/11
f 38/33/3 39/34/3 37/32/3
f 40/35/12 41/36/12 39/34/12
f 42/37/13 43/38/13 41/36/13
f 44/39/5 45/40/5 43/38/5
f 46/41/14 47/42/14 45/40/14
f 48/43/15 49/44/15 47/42/15
f 50/45/2 51/46/2 49/44/2
f 52/47/16 53/48/16 51/46/16
f 54/49/17 55/50/17 53/51/17
f 56/52/18 40/53/18 28/54/18
f 55/50/4 58/55/4 57/56/4
f 58/55/19 23/20/19 57/56/19
f 29/57/20 45/58/20 53/59/20
f 7/60/20 8/61/20 32/62/20
f 12/63/20 28/64/20 26/65/20
f 11/66/20 58/67/20 56/68/20
f 10/69/20 52/70/20 50/71/20
f 9/72/20 46/73/20 44/74/20
f 8/61/20 9/72/20 38/75/20
f 33/76/18 2/77/18 31/78/18
f 27/79/18 1/80/18 6/81/18
f 57/82/18 6/81/18 5/83/18
f 51/84/18 5/83/18 4/85/18
f 45/86/18 4/85/18 3/87/18
f 39/88/18 3/87/18 37/89/18
f 5/90/2 59/91/2 4/92/2
f 59/91/5 3/16/5 4/92/5
f 6/19/4 60/93/4 5/94/4
f 19/95/20 59/96/20 60/97/20
f 63/98/21 67/99/21 64/100/21
f 61/101/18 14/102/18 13/103/18
f 64/104/18 17/105/18 16/106/18
f 15/107/18 14/102/18 63/108/18
f 63/108/18 64/104/18 15/107/18
f 15/107/18 64/104/18 16/106/18
f 18/109/18 17/105/18 62/110/18
f 62/110/18 61/101/18 18/109/18
f 18/109/18 61/101/18 13/103/18
f 66/111/22 69/112/22 65/113/22
f 64/114/2 68/115/2 62/116/2
f 61/117/1 65/113/1 63/118/1
f 62/119/23 66/120/23 61/121/23
f 69/112/18 72/122/18 71/123/18
f 70/124/18 76/125/18 72/122/18
f 65/126/24 71/123/24 67/99/24
f 67/127/25 72/122/25 68/115/25
f 73/128/1 79/129/1 75/130/1
f 68/131/20 73/132/20 66/120/20
f 68/115/26 76/125/26 74/133/26
f 66/111/27 75/134/27 70/124/27
f 78/135/28 79/136/28 77/137/28
f 74/138/21 81/139/21 73/140/21
f 74/141/2 80/142/2 78/143/2
f 75/144/18 80/145/18 76/146/18
f 82/147/20 83/148/20 81/149/20
f 78/143/2 82/150/2 74/141/2
f 73/128/1 83/151/1 77/152/1
f 77/137/23 84/153/23 78/135/23
f 13/1/1 14/154/1 8/2/1
f 16/4/2 17/155/2 11/5/2
f 8/2/3 14/154/3 15/7/3
f 17/9/4 18/12/4 12/10/4
f 15/7/5 16/4/5 10/6/5
f 18/12/6 13/1/6 7/3/6
f 2/13/1 20/17/1 19/14/1
f 3/16/3 21/156/3 20/17/3
f 1/15/6 19/14/6 22/18/6
f 23/20/7 24/157/7 26/21/7
f 26/21/6 28/24/6 27/23/6
f 28/24/8 30/26/8 29/25/8
f 30/26/9 32/158/9 31/27/9
f 31/27/1 32/158/1 34/28/1
f 33/29/10 34/28/10 36/30/10
f 36/30/11 38/33/11 37/32/11
f 38/33/3 40/35/3 39/34/3
f 40/35/12 42/37/12 41/36/12
f 42/37/13 44/39/13 43/38/13
f 44/39/5 46/41/5 45/40/5
f 46/41/14 48/43/14 47/42/14
f 48/43/15 50/45/15 49/44/15
f 50/45/2 52/47/2 51/46/2
f 52/47/16 54/159/16 53/48/16
f 54/49/17 56/160/17 55/50/17
f 28/54/18 26/161/18 24/162/18
f 24/162/18 58/163/18 28/54/18
f 56/52/18 54/164/18 48/165/18
f 52/166/18 50/167/18 48/165/18
f 48/165/18 46/168/18 44/169/18
f 44/169/18 42/170/18 40/53/18
f 40/53/18 38/171/18 36/172/18
f 36/172/18 34/173/18 40/53/18
f 32/174/18 30/175/18 28/54/18
f 28/54/18 58/163/18 56/52/18
f 54/164/18 52/166/18 48/165/18
f 48/165/18 44/169/18 56/52/18
f 40/53/18 34/173/18 32/174/18
f 32/174/18 28/54/18 40/53/18
f 56/52/18 44/169/18 40/53/18
f 55/50/4 56/160/4 58/55/4
f 58/55/19 24/157/19 23/20/19
f 57/176/20 23/177/20 25/178/20
f 25/178/20 27/179/20 29/57/20
f 29/57/20 31/180/20 33/181/20
f 33/181/20 35/182/20 37/183/20
f 37/183/20 39/184/20 41/185/20
f 41/185/20 43/186/20 45/58/20
f 45/58/20 47/187/20 53/59/20
f 49/188/20 51/189/20 53/59/20
f 53/59/20 55/190/20 57/176/20
f 57/176/20 25/178/20 29/57/20
f 29/57/20 33/181/20 37/183/20
f 37/183/20 41/185/20 29/57/20
f 47/187/20 49/188/20 53/59/20
f 53/59/20 57/176/20 29/57/20
f 29/57/20 41/185/20 45/58/20
f 8/61/20 36/191/20 34/192/20
f 32/62/20 30/193/20 7/60/20
f 8/61/20 34/192/20 32/62/20
f 7/60/20 30/193/20 28/64/20
f 26/65/20 24/194/20 12/63/20
f 7/60/20 28/64/20 12/63/20
f 12/63/20 24/194/20 58/67/20
f 56/68/20 54/195/20 11/66/20
f 12/63/20 58/67/20 11/66/20
f 11/66/20 54/195/20 52/70/20
f 50/71/20 48/196/20 10/69/20
f 11/66/20 52/70/20 10/69/20
f 10/69/20 48/196/20 46/73/20
f 44/74/20 42/197/20 9/72/20
f 10/69/20 46/73/20 9/72/20
f 9/72/20 42/197/20 40/198/20
f 38/75/20 36/191/20 8/61/20
f 9/72/20 40/198/20 38/75/20
f 1/80/18 29/199/18 31/78/18
f 33/76/18 35/200/18 2/77/18
f 1/80/18 31/78/18 2/77/18
f 6/81/18 23/201/18 25/202/18
f 27/79/18 29/199/18 1/80/18
f 6/81/18 25/202/18 27/79/18
f 5/83/18 53/203/18 55/204/18
f 57/82/18 23/201/18 6/81/18
f 5/83/18 55/204/18 57/82/18
f 4/85/18 47/205/18 49/206/18
f 51/84/18 53/203/18 5/83/18
f 4/85/18 49/206/18 51/84/18
f 3/87/18 41/207/18 43/208/18
f 45/86/18 47/205/18 4/85/18
f 3/87/18 43/208/18 45/86/18
f 2/77/18 35/200/18 37/89/18
f 39/88/18 41/207/18 3/87/18
f 2/77/18 37/89/18 3/87/18
f 5/90/2 60/209/2 59/91/2
f 59/91/5 21/156/5 3/16/5
f 6/19/4 22/18/4 60/93/4
f 60/97/20 22/210/20 19/95/20
f 19/95/20 20/211/20 21/212/20
f 21/212/20 59/96/20 19/95/20
f 63/98/21 65/126/21 67/99/21
f 61/101/18 63/108/18 14/102/18
f 64/104/18 62/110/18 17/105/18
f 66/111/22 70/124/22 69/112/22
f 64/114/2 67/127/2 68/115/2
f 61/117/1 66/111/1 65/113/1
f 62/119/23 68/131/23 66/120/23
f 69/112/18 70/124/18 72/122/18
f 70/124/18 75/134/18 76/125/18
f 65/126/24 69/112/24 71/123/24
f 67/127/25 71/123/25 72/122/25
f 73/128/1 77/152/1 79/129/1
f 68/131/20 74/213/20 73/132/20
f 68/115/29 72/122/29 76/125/29
f 66/111/30 73/214/30 75/134/30
f 78/135/28 80/215/28 79/136/28
f 74/138/21 82/216/21 81/139/21
f 74/141/2 76/217/2 80/142/2
f 75/144/18 79/218/18 80/145/18
f 82/147/20 84/219/20 83/148/20
f 78/143/2 84/220/2 82/150/2
f 73/128/1 81/221/1 83/151/1
f 77/137/23 83/222/23 84/153/23
